<svg width="24.000000" height="24.000000" viewBox="0 0 24 24" fill="none" xmlns="http://www.w3.org/2000/svg" xmlns:xlink="http://www.w3.org/1999/xlink">
	<desc>
			Created with Pixso.
	</desc>
	<defs>
		<clipPath id="clip11_254">
			<rect id="Frame" width="24.000000" height="24.000000" fill="white" fill-opacity="0"/>
		</clipPath>
	</defs>
	<rect id="Frame" width="24.000000" height="24.000000" fill="#FFFFFF" fill-opacity="0"/>
	<g clip-path="url(#clip11_254)">
		<path id="Vector" d="M7.17096 2.33496C6.78101 1.88525 6.06598 1.88721 5.61298 2.34082L2.83099 5.12793C2.00299 5.95703 1.76599 7.18799 2.245 8.1748C5.10663 14.1001 9.88501 18.8853 15.806 21.7549C16.792 22.2339 18.022 21.9971 18.85 21.168L21.658 18.355C22.113 17.8999 22.114 17.1812 21.66 16.791L17.74 13.4263C17.33 13.0742 16.693 13.1201 16.282 13.5322L14.918 14.8979C14.8481 14.9712 14.7562 15.0195 14.6563 15.0352C14.5565 15.0513 14.4541 15.0337 14.365 14.9858C12.1354 13.7021 10.286 11.8501 9.005 9.61914C8.95703 9.52979 8.93964 9.42725 8.95557 9.32715C8.97144 9.22705 9.01971 9.13525 9.09302 9.06494L10.453 7.7041C10.865 7.29004 10.91 6.6499 10.554 6.23926L10.554 6.24023L7.17096 2.33496Z" stroke="#512689" stroke-opacity="1.000000" stroke-width="2.000000" stroke-linejoin="round"/>
	</g>
</svg>
