<svg width="24.000000" height="24.000000" viewBox="0 0 24 24" fill="none" xmlns="http://www.w3.org/2000/svg" xmlns:xlink="http://www.w3.org/1999/xlink">
	<desc>
			Created with Pixso.
	</desc>
	<defs>
		<clipPath id="clip11_258">
			<rect id="Frame" width="24.000000" height="24.000000" fill="white" fill-opacity="0"/>
		</clipPath>
	</defs>
	<rect id="Frame" width="24.000000" height="24.000000" fill="#FFFFFF" fill-opacity="0"/>
	<g clip-path="url(#clip11_258)">
		<path id="Vector" d="M21 4.5L3 4.5C2.60217 4.5 2.22064 4.6582 1.93933 4.93945C1.65802 5.2207 1.5 5.60205 1.5 6L1.5 18C1.5 18.3979 1.65802 18.7793 1.93933 19.0605C2.22064 19.3418 2.60217 19.5 3 19.5L21 19.5C21.3978 19.5 21.7794 19.3418 22.0607 19.0605C22.342 18.7793 22.5 18.3979 22.5 18L22.5 6C22.5 5.60205 22.342 5.2207 22.0607 4.93945C21.7794 4.6582 21.3978 4.5 21 4.5ZM19.35 6L12 11.085L4.65002 6L19.35 6ZM3 18L3 6.68262L11.5725 12.6152C11.6981 12.7021 11.8472 12.7485 12 12.7485C12.1528 12.7485 12.3019 12.7021 12.4275 12.6152L21 6.68262L21 18L3 18Z" fill="#512689" fill-opacity="1.000000" fill-rule="nonzero"/>
	</g>
</svg>
